<?xml version="1.0" encoding="utf-8"?>
<!-- Generator: Adobe Illustrator 24.0.2, SVG Export Plug-In . SVG Version: 6.00 Build 0)  -->
<svg version="1.1" id="Layer_1" xmlns="http://www.w3.org/2000/svg" xmlns:xlink="http://www.w3.org/1999/xlink" x="0px" y="0px"
	 viewBox="0 0 1366 768" style="enable-background:new 0 0 1366 768;" xml:space="preserve">
<style type="text/css">
	.st0{clip-path:url(#SVGID_2_);}
	.st1{fill:#7CB7ED;}
	.st2{fill:#FFFFFF;}
	.st3{fill:#0FB55E;}
	.st4{fill:#0000FF;}
	.st5{fill:none;}
</style>
<g id="layer1" transform="translate(-452.68 -541.42)">
	<g id="g14" transform="matrix(1.25 0 0 -1.25 145.71 1110.2)">
		<g>
			<defs>
				<rect id="SVGID_1_" x="330.5" y="-181.9" width="922.5" height="673.5"/>
			</defs>
			<clipPath id="SVGID_2_">
				<use xlink:href="#SVGID_1_"  style="overflow:visible;"/>
			</clipPath>
			<g id="g16" class="st0">
				<g id="g22" transform="translate(554.43 299.61)">
					<path id="path24" class="st1" d="M379.8-145.1c0-76.6-63.8-138.7-142.5-138.7c-78.7,0-142.5,62.1-142.5,138.7
						c0,76.6,63.8,138.7,142.5,138.7S379.8-68.6,379.8-145.1"/>
				</g>
				<g id="g26" transform="translate(447 151.47)">
					<path id="path28" class="st2" d="M388.1-130c0,0-44.8-13.9-90.3,1.2c0,0,26.1,3.7,38.4,10.5C348.5-111.5,388.1-130,388.1-130"
						/>
				</g>
				<g id="g30" transform="translate(487.95 212.66)">
					<path id="path32" class="st3" d="M385-136.3c0,0-0.8,23.9-1.3,35.1c-0.4,11.1,3.8,18.6-1.7,28.9c-5.5,10.3-1.3,18.6-6.4,19
						c-5.1,0.4-21.2,3.3-30.1,0c-8.9-3.3-28.4,11.1-28.8,20.6c-0.4,9.5-3.4,16.5-3.4,16.5s11,17.3,14,16.7c3-0.6,3.4,11,5.5,11.8
						c2.1,0.8,24.6,6.6,30.9,6.6c6.4,0,1.7-6.6,1.7-6.6l19.5-7l3.4,7.4l17-5c0,0-0.4,9.9-4.2,11.1c-3.8,1.2-19.9,8.7-19.9,8.7
						s3.4-6.2,1.7-7.8c-1.7-1.7-7.2,7.8-7.2,7.8l-12.3,4.5c0,0-8.5-1.2-13.1-2.9c-4.7-1.7-6.8-9.5-6.8-9.5s-8.5-4.1-14-2.9
						c-5.5,1.2-3.8,11.6-3.8,11.6s10.2,0.8,11,3.7c0.8,2.9-7.2,8.3-7.2,8.3l6.4,2.9l5.9,10.1l9.3-1l3,10.7l-0.7,10.6
						c0,0,62.1-28.4,81.7-75.4l-10.1,6.2l4.2-9.1l1.7,1.2l5.1-9.1v-7.4l-2.5-11.4c0,0-16.2,26.5-23.7,33.3c0,0,11-24.8,24.2-37.6
						l4.2,4.3v-13.8v-6.2l-3.8-8.7l-4.7-13.6l-0.8-10.7v-12.8l-6.4-6.2l-6.4-4.5v-5.4l-6.4-8.3l-8.9-9.1l-8.9-5.8L385-136.3
						L385-136.3z"/>
				</g>
				<g id="g34" transform="translate(355.05 160.34)">
					<path id="path36" class="st3" d="M395.3-130.9l-8.5,10.7l1.3,5.8h5.5l-1.2,5.9l1.6,7.7l1.3,5.8l4.8,4.9c0,0,10.9,4.2,9.6,19.1
						c0,0,9.3,12.4,7.2,19c-2.1,6.6-14.9,6.2-14.9,6.2l-21.1,8.7c0,0-1.7,8.7-7.6,9.5c-5.9,0.8-7.6-3.3-10.2,0
						c-2.5,3.3-6.1,8.3-12.8,8.7c-6.7,0.4-15.2,5.8-15.2,5.8s-1.3,4.5-8.5,2.9c0,0-4.7,4.5-2.5,13.6c0,0-0.4,5-6.8,2.9
						c0,0-5.1,5.4-6.8,5.4c-1.7,0-4.2,15.7,3.4,22.7c0,0,7.2,8.3,15.3,3.3c0,0-0.4-7.8,0.8-11.6s3.8,5.4,3.8,5.4l0.4,11.6
						c0,0,5.5,2.5,10.2,6.6c4.7,4.1,3,9.5,9.3,13.6c6.4,4.1,7.6,0,7.6,0l0.4,7h5.9l14.4,6.2c0,0-6.8-0.4-9.3,3.3L391,89v5.4
						l-1.3,11.1l-4.3-5l-0.8,5l-8.1,1h-3l-6.8-3.1l-0.4-4.1l-7.6-3.3l-3.8,3.7l3,3.7l3,3.1l7.9,10.4c0,0-52.4-28.6-67.7-79.2
						c0,0-0.9-16-1.3-21.7c-0.4-5.8,4.7-11.1,4.7-11.1h4.7l1.7-4.1l3.8-1.2l2.1-1.2l1.3-3.2l1.7-5.9l3.8-0.8l2.1-3.7l2.5-0.4
						l-0.8,3.3h3.4l1.3-2.9l-3.8-2.9l-1.3-2.9l-0.4-6.6l0.4-5l0.4-4.5l-3.8-2.1l0.8-4.5l0.4-2.9v-4.5l-2.1-0.8L338-72.3l4.7-1.7
						l3-0.4l4.7-1.7l3.8-7c0,0,12.3-26.4,14-30.1C369.8-116.9,387.6-132.2,395.3-130.9"/>
				</g>
				<g id="g38" transform="translate(400 455.04)">
					<path id="path40" class="st2" d="M391.8-161c47.1,0,73.1-19.7,73.1-19.7s-17.5-7.3-44.6,0c0,0-20.9-1-35.7-7
						c-14.7-6-22.5,9.8-22.5,9.8s-12.9-8.6-35.1,1.7C327-176.1,356.3-161,391.8-161"/>
				</g>
			</g>
		</g>
	</g>
</g>
<g>
	<g>
		<path class="st4" d="M86.8,171.8c0.7-0.3,1.4-0.7,2.1-1c0.2-0.1,0.3-0.2,0.4-0.4c0.1-0.1,0.2-0.3,0.3-0.5c0.1-0.2,0.1-0.4,0-0.6
			c0-0.2-0.1-0.4-0.2-0.6c-0.2-0.3-0.5-0.6-0.9-0.7c-0.1,0-0.3,0-0.4-0.1c-0.3,0-0.5,0.1-0.8,0.2c-0.7,0.3-1.4,0.7-2.1,1
			c-0.2,0.1-0.3,0.2-0.4,0.4c-0.1,0.1-0.2,0.3-0.3,0.5c-0.1,0.2-0.1,0.4,0,0.6c0,0.2,0.1,0.4,0.2,0.6c0.2,0.3,0.5,0.6,0.9,0.7
			c0.1,0,0.3,0,0.4,0.1C86.4,172,86.6,171.9,86.8,171.8L86.8,171.8z"/>
	</g>
</g>
<path id="SVGID_x5F_3_x5F_" class="st5" d="M420.8,111.4L398,194.9l11,130l26.1,87.4l51.5,73.3l84.1,70l96.3,20.2l106.9-11.8
	l83.4-47.5l65.8-69l42.2-101.2l0.7-113.9l-21.6-105.2"/>
<text><textPath  xlink:href="#SVGID_x5F_3_x5F_" startOffset="12.7712%">
<tspan  style="font-family:'TempusSansITC'; font-size:96.1331px;">   </tspan><tspan  style="fill:#AA55FF; font-family:'TempusSansITC'; font-size:96.1331px;">  </tspan><tspan  style="fill:#AA55FF;stroke:#0000FF;stroke-width:5;stroke-miterlimit:10; font-family:'NirmalaUI-Semilight'; font-size:96.1331px;">E  x  p  l  o  r  A  R</tspan></textPath>
</text>
</svg>
